<?xml version="1.0" encoding="utf-8"?>
<!-- Generator: Adobe Illustrator 23.0.1, SVG Export Plug-In . SVG Version: 6.00 Build 0)  -->
<svg version="1.1" id="Layer_1" xmlns="http://www.w3.org/2000/svg" xmlns:xlink="http://www.w3.org/1999/xlink" x="0px" y="0px"
	 viewBox="0 0 560 288" style="enable-background:new 0 0 560 288;" xml:space="preserve">
<style type="text/css">
	.st0{opacity:0.5;fill:#FFFFFF;stroke:#000000;stroke-width:0.25;stroke-miterlimit:10;}
	.st1{opacity:0.2;fill:#666666;}
	.st2{fill:#FFFFFF;stroke:#000000;stroke-width:0.25;stroke-miterlimit:10;}
	.st3{fill:none;stroke:#000000;stroke-width:0.25;stroke-miterlimit:10;}
	.st4{fill:none;}
	.st5{font-family:'MyriadPro-Regular';}
	.st6{font-size:29.0346px;}
</style>
<path class="st0" d="M297.17,114.41c-0.06-0.02-0.11-0.04-0.17-0.07l-14.81,35.69l-14.74-35.65c-9.18,3.8-16.92,11.1-21.03,21
	c-8.22,19.81,1.18,42.53,20.98,50.75c19.81,8.22,42.53-1.18,50.75-20.98C326.37,145.35,316.98,122.63,297.17,114.41z"/>
<rect x="262.28" y="92.14" class="st1" width="132.95" height="63.14"/>
<path class="st2" d="M297,99.36c-9.86-4.04-20.42-3.73-29.55,0.05l14.74,35.65L297,99.36z"/>
<line class="st3" x1="272.02" y1="97.84" x2="282.23" y2="123.72"/>
<line class="st3" x1="292.31" y1="97.77" x2="282.23" y2="123.72"/>
<polygon class="st3" points="282.23,123.86 282.38,123.6 282.08,123.6 "/>
<rect x="301.31" y="103.12" class="st4" width="82.91" height="30.66"/>
<text transform="matrix(1 0 0 1 301.3047 123.7393)" class="st5 st6">ictor’s</text>
<rect x="306.28" y="129.5" class="st4" width="82.91" height="30.66"/>
<text transform="matrix(1 0 0 1 306.2734 150.1143)" class="st5 st6">Pizza</text>
</svg>
