<?xml version="1.0" encoding="utf-8"?>
<!-- Generator: Adobe Illustrator 23.0.1, SVG Export Plug-In . SVG Version: 6.00 Build 0)  -->
<svg version="1.1" id="Layer_1" xmlns="http://www.w3.org/2000/svg" xmlns:xlink="http://www.w3.org/1999/xlink" x="0px" y="0px"
	 viewBox="0 0 100 100" style="enable-background:new 0 0 100 100;" xml:space="preserve">
<style type="text/css">
	.st0{opacity:0.4;fill:#CCCCCC;stroke:#000000;stroke-miterlimit:10;}
	.st1{fill:#E6E6E6;stroke:#000000;stroke-miterlimit:10;}
	.st2{fill:none;stroke:#000000;stroke-width:0.25;stroke-miterlimit:10;}
</style>
<path class="st0" d="M65.9,16.16c-0.06-0.03-0.12-0.05-0.18-0.07L49.47,55.24L33.3,16.14C23.23,20.3,14.74,28.31,10.23,39.18
	c-9.02,21.73,1.29,46.65,23.02,55.67c21.73,9.02,46.65-1.29,55.67-23.02C97.94,50.1,87.63,25.17,65.9,16.16z"/>
<g>
	<path class="st1" d="M65.45,5.01c-10.59-4.34-21.93-4-31.74,0.05l15.83,38.28L65.45,5.01z"/>
	<line class="st1" x1="38.61" y1="3.39" x2="49.58" y2="31.18"/>
	<line class="st1" x1="60.4" y1="3.31" x2="49.58" y2="31.18"/>
</g>
<polygon class="st2" points="41.16,33.48 41.29,33.25 41.03,33.25 "/>
</svg>
